<svg width="90" height="74" xmlns="http://www.w3.org/2000/svg">
  <defs>
    <linearGradient x1="0%" y1="100%" x2="117.921%" y2="0%" id="a"><stop stop-color="#CEE6E0" offset="0%"/><stop stop-color="#9DB0D8" offset="100%"/></linearGradient>
  </defs><path
    d="M7.893 18.411a4.428 4.428 0 0 1-6.333-.56c-1.605-1.948-1.36-4.86.547-6.497A215.7 215.7 0 0 1 4.258 9.52C10.205 4.536 14.763 1.909 20.557.892c7.491-1.314 16.123.614 26.615 6.54 14.38 8.125 22.151 7.482 31.469.005.957-.769 1.718-1.412 3.466-2.913a4.427 4.427 0 0 1 6.333.56c1.605 1.948 1.36 4.86-.547 6.496-4.53 3.892-6.758 5.614-9.85 7.34-4.13 2.305-8.389 3.514-13.176 3.514-6.397.001-13.636-2.183-22.043-6.933C28.45 7.379 20.68 8.022 11.36 15.497c-.958.769-1.716 1.41-3.468 2.914zm74.214 11.647a4.425 4.425 0 0 1 6.333.559c1.605 1.948 1.36 4.859-.547 6.497-4.533 3.894-6.758 5.613-9.85 7.34-4.13 2.305-8.39 3.514-13.176 3.514-6.396 0-13.635-2.185-22.043-6.935-14.374-8.121-22.144-7.478-31.463-.003-.958.769-1.717 1.41-3.468 2.914a4.428 4.428 0 0 1-6.333-.56c-1.605-1.947-1.359-4.858.547-6.497a215.67 215.67 0 0 1 2.15-1.832c5.947-4.985 10.505-7.613 16.3-8.63 7.49-1.314 16.123.614 26.615 6.542 14.38 8.123 22.15 7.48 31.469.003.957-.768 1.716-1.41 3.466-2.912zM78.64 58.5c.957-.768 1.717-1.41 3.466-2.912a4.43 4.43 0 0 1 6.333.56c1.605 1.948 1.36 4.86-.547 6.498-4.534 3.895-6.758 5.613-9.85 7.339-4.13 2.305-8.39 3.514-13.176 3.514-6.399 0-13.637-2.184-22.043-6.935-8.9-5.027-15.577-6.619-21.275-5.406-4.441.945-7.27 2.832-13.656 8.318a4.43 4.43 0 0 1-6.333-.559c-1.605-1.948-1.36-4.86.547-6.498a215.68 215.68 0 0 1 2.15-1.833c5.947-4.985 10.505-7.613 16.3-8.63 7.49-1.314 16.123.614 26.615 6.542 14.38 8.122 22.15 7.48 31.469.002z"
    fill="url(#a)"
    fill-rule="nonzero"
    opacity=".7"/></svg>
